<svg id="visual" viewBox="0 0 900 600" width="900" height="600" xmlns="http://www.w3.org/2000/svg" xmlns:xlink="http://www.w3.org/1999/xlink" version="1.1"><rect x="0" y="0" width="900" height="600" fill="#fff"></rect><path d="M0 481L21.5 483.8C43 486.7 86 492.3 128.8 501.2C171.7 510 214.3 522 257.2 523C300 524 343 514 385.8 503.7C428.7 493.3 471.3 482.7 514.2 479.2C557 475.7 600 479.3 642.8 487.5C685.7 495.7 728.3 508.3 771.2 517.7C814 527 857 533 878.5 536L900 539L900 601L878.5 601C857 601 814 601 771.2 601C728.3 601 685.7 601 642.8 601C600 601 557 601 514.2 601C471.3 601 428.7 601 385.8 601C343 601 300 601 257.2 601C214.3 601 171.7 601 128.8 601C86 601 43 601 21.5 601L0 601Z" fill="#DAB49D" stroke-linecap="round" stroke-linejoin="miter"></path></svg>